PathFileType	4	(X/Y/Z)	Patient4_TMGait_0pt4_02_left_20.trc.trc
DataRate	CameraRate	NumFrames	NumMarkers	Units	OrigDataRate	OrigDataStartFrame	OrigNumFrames
71.428571428572	71.428571428572	4	33	mm	71.428571428572	106	       141
Frame#	Time	Sacral			L.Shoulder			Chest			R.Shoulder			Neck			R.ASIS			L.ASIS			R.Thigh.Superior			R.Thigh.Lateral			R.Thigh.Inferior			R.Patella			L.Thigh.Superior			L.Thigh.Lateral			L.Thigh.Inferior			L.Patella			L.Shank.Superior			L.Shank.Lateral			L.Shank.Inferior			R.Shank.Superior			R.Shank.Lateral			R.Shank.Inferior			R.Heel			R.Midfoot.Superior			R.Midfoot.Lateral			R.Toe			L.Heel			L.Midfoot.Lateral			L.Midfoot.Superior			L.Toe			L.Elbow			L.Wrist			R.Elbow			R.Wrist			
		X1	Y1	Z1	X2	Y2	Z2	X3	Y3	Z3	X4	Y4	Z4	X5	Y5	Z5	X6	Y6	Z6	X7	Y7	Z7	X8	Y8	Z8	X9	Y9	Z9	X10	Y10	Z10	X11	Y11	Z11	X12	Y12	Z12	X13	Y13	Z13	X14	Y14	Z14	X15	Y15	Z15	X16	Y16	Z16	X17	Y17	Z17	X18	Y18	Z18	X19	Y19	Z19	X20	Y20	Z20	X21	Y21	Z21	X22	Y22	Z22	X23	Y23	Z23	X24	Y24	Z24	X25	Y25	Z25	X26	Y26	Z26	X27	Y27	Z27	X28	Y28	Z28	X29	Y29	Z29	X30	Y30	Z30	X31	Y31	Z31	X32	Y32	Z32	X33	Y33	Z33	

106	28.250000000000	884.391061051693	1006.949221172755	530.149204957398	1033.909343368960	1443.019150518886	345.313134714947	1157.012187744020	1373.654175930290	490.703281165862	1095.226191685936	1439.513958187707	676.147963784158	1033.838119182369	1500.320320777263	504.231169088759	1123.296317821821	943.666213492906	619.962506922002	1082.115071995723	973.299668773663	349.786919788038	1146.266518142121	738.546655982602	583.173197143175	1063.972110143178	630.809765078975	648.926639382316	1130.499271459343	578.094196815150	562.110430799967	1124.986050902200	490.662258695982	567.040607992339	1166.248122414825	793.402265920490	362.952551723539	1120.153914185140	665.944960511723	282.306745107194	1229.041613491288	608.611177435474	333.435172388669	1253.809271432928	535.395800910992	322.228800431220	1222.753603157858	460.245344014414	313.170764191649	1125.152777435276	350.939727931982	266.045058383876	1191.462714093872	233.490748582874	311.663491558434	1092.818183381380	401.700626421048	572.789167646429	1019.372160509776	299.630979486749	636.365006658755	1052.928669889838	205.478478532518	566.208118435582	911.081528358158	42.882517489100	538.641351382519	1085.547888831010	96.940885638610	563.827440267423	999.196167396742	36.996767511506	607.932415534335	1206.306301553517	44.091290170846	582.427450495937	1075.729809862667	71.115017251722	353.467366325778	1141.260781329279	69.452333465409	266.775589837995	1224.618555305746	135.050851050433	284.346685037186	1348.810734222308	88.636307080771	242.843061791571	936.116973487097	1101.992439740499	239.796765005051	943.555032305091	840.564366808300	233.727291807529	1201.653864061411	1115.559706799875	806.014492617628	1446.190359085552	1067.179342521361	745.291156352676	
107	28.264000000000	883.405479905583	1007.218236197596	530.819322100232	1033.133266368010	1443.128719998276	346.053446434738	1156.918005578646	1373.129762601857	490.618328268944	1096.459257044884	1439.078217806295	676.450128674641	1034.190845538574	1500.106640365570	505.187929701131	1122.289795422707	943.334183920235	619.872185807610	1080.636278816524	973.180187893065	349.672711626571	1143.619924479653	737.948770633350	583.060026111282	1060.802095198042	630.651645998532	649.180931489731	1126.371526293915	577.582881511924	562.129690769955	1120.219932844915	490.380371519077	567.073494740243	1163.494044730655	792.576922892824	363.755741491943	1117.732129594421	665.592430342039	282.303883663223	1225.540454607466	607.675184202707	335.290216552558	1251.450058105204	537.115533275900	324.246524353785	1224.739643893808	462.759987201985	313.743685062824	1135.590776835798	347.564344020361	264.154003332520	1209.335894309227	234.275485057754	309.663081445715	1087.921166429838	401.441054673425	572.841060845573	1014.392794351078	299.474847095843	636.430650062744	1047.609049002278	205.316617426698	566.173219245728	905.453846501680	42.884726894202	538.625538511914	1079.923717721998	96.900233402961	563.809203345044	993.568773850856	37.006201008101	607.929599634431	1200.673064772713	44.005844668190	582.463942415040	1104.133532441459	64.602619619904	348.919092575281	1171.295558453119	66.858090731599	263.313534437948	1250.483994689645	137.259517383953	282.139001508661	1378.019126470290	98.071546233163	242.745427427929	927.665354960160	1104.382661126881	242.524014387723	927.709603887115	842.823673839851	239.047227350711	1209.894790376891	1117.578363462340	804.284254726919	1455.377472970170	1083.265051906937	739.466962900857	
108	28.278000000000	882.425192317039	1007.398116859925	531.316076726163	1032.511376405545	1443.129348274011	346.517940533063	1156.841170574390	1372.521249843011	490.387569520193	1097.539814537745	1438.612423539707	676.513382919198	1034.570805780732	1499.817618087381	505.888823952251	1121.324231973396	942.952139966307	619.743099735875	1079.233249163827	972.932151629657	349.474715050237	1141.162493842501	737.319948717539	582.975371293632	1057.763376960851	630.455057630732	649.337867756502	1122.421828793396	577.039681912335	562.085595218361	1115.632243913706	490.056240086384	566.982681163861	1160.671061053818	791.418130371672	364.458778454584	1115.026057381500	665.001276119327	282.208519780189	1221.851122090913	606.413070276698	336.855710932281	1248.748552376118	538.509581944884	326.150925172271	1226.155833104851	465.183767922624	314.333667164482	1145.441705016747	344.835555774941	262.431244443946	1225.968366695822	236.015227368010	308.086892066292	1083.182413916421	401.150081400812	572.770469971196	1009.576975718425	299.306055140200	636.436578616670	1042.373010391698	205.128947970532	566.069395592574	899.834765269310	42.890357802068	538.601300488387	1074.300643037861	96.856747728851	563.776225890633	987.940987630708	37.021652478555	607.917445137042	1195.050538422188	43.908825898918	582.504029931550	1130.972561713679	60.288746484518	344.983225027269	1199.786897408032	65.855612775308	260.666544460250	1274.859710668805	140.480804678962	280.636586576298	1405.216677370309	107.874323567330	243.891076754981	919.888310585667	1106.670956147077	245.121569537276	913.015660669561	845.184724537643	244.180477340774	1217.564787004560	1119.536154387614	802.178001573461	1463.111484122102	1098.914991343579	733.438914404155	
109	28.292000000000	881.479247094024	1007.500771618128	531.658533853930	1032.010063905390	1443.038213732074	346.713588113785	1156.764580464433	1371.865623032375	490.013275143279	1098.452673396559	1438.154709746295	676.341571182275	1034.941782194736	1499.481140664864	506.312698177855	1120.431142901020	942.535275698056	619.574317553703	1077.913376731695	972.593520554222	349.205280892360	1138.887111696877	736.662522043696	582.883070088806	1054.851943843921	630.229306811932	649.377326154512	1118.635797541726	576.467197127778	561.949947051657	1111.206299561426	489.691992376613	566.745651614430	1157.894167198137	790.066880635875	365.013114083494	1112.165001427471	664.237327231065	282.051310730873	1218.198891930669	604.989443857119	338.033910922312	1245.922756266019	539.652265803954	327.833154163420	1227.110194376194	467.481967042006	314.902997345298	1154.472747546757	342.752900593125	261.001593788709	1241.031308188677	238.495698960385	306.979259565166	1078.587216969165	400.831454032469	572.564786225841	1004.911643271891	299.132658805249	636.379306320194	1037.210049923575	204.920547502372	565.894889171758	894.221870522974	42.898953122857	538.570892775001	1068.675402829641	96.812013781480	563.729206182801	982.309960265378	37.041910830854	607.897642090571	1189.437516282923	43.806542270460	582.548499250980	1155.583296561552	57.954451061583	341.865004268802	1226.023095552225	66.156400469148	258.948842067611	1297.204688920275	144.395200255943	279.855544142983	1429.873278261029	117.570368234306	246.113339699279	912.821012394982	1108.810817006460	247.553920393160	899.530146570518	847.559818956463	249.034664181698	1224.622282289490	1121.438837048685	799.736168965051	1469.424025787815	1113.999220827072	727.268815552500	
